<svg id="Layer_1" data-name="Layer 1" xmlns="http://www.w3.org/2000/svg" viewBox="0 0 841.89 432.61">
    <defs>
        <style>.cls-1{fill:#fdb816;}.cls-2{fill:#ef363f;}.cls-3{fill:#09b057;}.cls-4{fill:#04aae0;}.cls-5{fill:#a2479b;}.cls-6{fill:#5a5b5b;}</style>
    </defs>
    <title>Agoda_Logo</title>
    <path class="cls-1" d="M246.45,304a62.46,62.46,0,1,0,62.45,62.46A62.53,62.53,0,0,0,246.45,304" />
    <path class="cls-2" d="M71.9,304a62.46,62.46,0,1,0,62.46,62.46A62.53,62.53,0,0,0,71.9,304" />
    <path class="cls-3" d="M421,304a62.46,62.46,0,1,0,62.45,62.46A62.53,62.53,0,0,0,421,304" />
    <path class="cls-4" d="M770.06,304a62.46,62.46,0,1,0,62.46,62.46A62.52,62.52,0,0,0,770.06,304" />
    <path class="cls-5" d="M595.53,304A62.45,62.45,0,1,0,658,366.43,62.53,62.53,0,0,0,595.53,304" />
    <path class="cls-6" d="M124,127c0-29.21-22-51.24-51.24-51.24S21.49,97.79,21.49,127s22,51.23,51.24,51.23S124,156.19,124,127M0,127C0,86.5,32.51,55.92,72.73,55.92c40.49,0,72.72,30.31,72.72,70.8V189c0,6.33-4.41,10.74-11,10.74-6.89,0-11-4.41-11-10.74V170.8h-1.1c-8.54,14.6-25.62,27.27-51,27.27C32.23,198.07,0,167.77,0,127" />
    <path class="cls-6" d="M298.07,127c0-29.21-22-51.25-51.23-51.25S195.6,97.79,195.6,127s22,51.23,51.24,51.23,51.23-22,51.23-51.23M202.21,244.07c-5.79-2.75-8.54-7.71-6.34-13.49,2.21-6.07,7.72-8.54,13.5-5.79a84.44,84.44,0,0,0,35.54,8c32.78,0,52.61-19.56,52.61-52.89V170.8h-1.1c-8.54,14.6-25.62,27.27-51,27.27-39.12,0-71.35-30.3-71.35-71.07,0-40.5,32.51-71.08,72.73-71.08,40.49,0,72.72,30.31,72.72,70.8v51.79c0,44.63-28.65,74.65-75.48,74.65a96.38,96.38,0,0,1-41.87-9.09" />
    <path class="cls-6" d="M472.18,127c0-29.21-22-51.24-51.23-51.24s-51.24,22-51.24,51.24,22,51.23,51.24,51.23,51.23-22,51.23-51.23m-124,0c0-40.5,32.23-71.08,72.73-71.08S493.67,86.5,493.67,127,461.44,198.07,421,198.07,348.22,167.49,348.22,127" />
    <path class="cls-6" d="M646.29,127c0-29.21-22-51.24-51.23-51.24s-51.24,22-51.24,51.24,22,51.23,51.24,51.23,51.23-22,51.23-51.23m-124,0c0-40.5,31.95-71.08,71.35-71.08,25.34,0,42.42,12.67,51,27.27h1.1V10.74c0-6.33,4.41-10.74,11-10.74,6.89,0,11,4.41,11,10.74V127.27c0,40.5-32.23,70.8-72.72,70.8-40.22,0-72.73-30.58-72.73-71.07" />
    <path class="cls-6" d="M820.4,127c0-29.21-22-51.24-51.23-51.24s-51.24,22-51.24,51.24,22,51.23,51.24,51.23,51.23-22,51.23-51.23m-124,0c0-40.5,32.51-71.08,72.73-71.08,40.49,0,72.72,30.31,72.72,70.8V189c0,6.33-4.41,10.74-11,10.74-6.89,0-11-4.41-11-10.74V170.8h-1.1c-8.54,14.6-25.62,27.27-51,27.27-39.12,0-71.35-30.3-71.35-71.07" />
</svg>
