<svg xmlns="http://www.w3.org/2000/svg" width="76" height="13" viewBox="0 0 76 13">
    <g fill="none" fill-rule="nonzero">
        <path fill="#273B7D" d="M30.06 1.567A1.13 1.13 0 0 1 31.192.439c.626 0 1.135.504 1.135 1.128 0 .622-.509 1.127-1.135 1.127a1.13 1.13 0 0 1-1.132-1.127"/>
        <path fill="#499FDD" d="M47.947 9.067a1.13 1.13 0 0 1 1.132-1.129c.626 0 1.135.505 1.135 1.129 0 .622-.509 1.127-1.135 1.127a1.13 1.13 0 0 1-1.132-1.127"/>
        <path fill="#273B7D" d="M11.454 8.58c-.977 0-1.655-.77-1.655-1.87 0-1.098.678-1.867 1.655-1.867.982 0 1.668.769 1.668 1.868 0 1.117-.672 1.868-1.668 1.868zm0-5.38c-2.066 0-3.565 1.477-3.565 3.51 0 2.034 1.5 3.51 3.565 3.51 2.073 0 3.579-1.476 3.579-3.51 0-2.033-1.506-3.51-3.58-3.51zM27.864 6.886a1.673 1.673 0 0 0-.27-.377l-.062-.066.065-.062c.095-.1.192-.217.285-.353l1.823-2.689h-2.213l-1.37 2.103c-.077.113-.233.17-.468.17h-.312V1.636c0-.795-.5-.903-1.039-.903h-.923l.001 9.384h1.961V7.302h.184c.223 0 .376.026.445.146l1.082 2.026c.302.55.603.643 1.17.643h1.503l-1.12-1.836-.742-1.395M37.383 3.186c-.997 0-1.633.44-1.99.811l-.119.12-.042-.163c-.105-.398-.458-.617-.99-.617h-.878l.005 6.778h1.948V6.99c0-.306.04-.57.121-.812.217-.732.822-1.187 1.578-1.187.607 0 .845.318.845 1.14v2.952c0 .702.327 1.03 1.035 1.03h.927l-.003-4.31c0-1.713-.842-2.618-2.436-2.618M31.217 3.34h-.923l.007 5.24v1.536h.984l.035.002.46-.002h.456v-.002h.003l.004-5.745c0-.693-.334-1.03-1.025-1.03M19.103 8.58c-.976 0-1.656-.77-1.656-1.87 0-1.098.68-1.867 1.656-1.867.98 0 1.668.769 1.668 1.868 0 1.117-.671 1.868-1.668 1.868zm0-5.38c-2.067 0-3.567 1.477-3.567 3.51 0 2.034 1.5 3.51 3.567 3.51 2.072 0 3.58-1.476 3.58-3.51 0-2.033-1.508-3.51-3.58-3.51z"/>
        <path fill="#499FDD" d="M60.848 8.58c-.976 0-1.656-.77-1.656-1.87 0-1.098.68-1.867 1.656-1.867.98 0 1.668.769 1.668 1.868 0 1.117-.671 1.868-1.668 1.868zm0-5.38c-2.067 0-3.567 1.477-3.567 3.51 0 2.034 1.5 3.51 3.567 3.51 2.072 0 3.579-1.476 3.579-3.51 0-2.033-1.507-3.51-3.579-3.51z"/>
        <path fill="#273B7D" d="M43.926 8.281c-1.064 0-1.443-.921-1.443-1.785 0-.38.097-1.62 1.341-1.62.619 0 1.443.175 1.443 1.684 0 1.423-.73 1.721-1.34 1.721zm2.352-4.96c-.37 0-.654.147-.797.414l-.053.103-.09-.077c-.315-.27-.879-.59-1.794-.59-1.821 0-3.047 1.357-3.047 3.376 0 2.017 1.268 3.426 3.084 3.426.62 0 1.11-.143 1.498-.435l.15-.112v.188c0 .906-.59 1.405-1.66 1.405-.52 0-.993-.126-1.31-.24-.412-.123-.655-.02-.822.39l-.155.38-.218.554.135.072c.685.36 1.576.575 2.382.575 1.658 0 3.595-.842 3.595-3.212l.007-6.216h-.905zM4.2 8.502L2.617 8.5V6.62c0-.402.157-.611.504-.66H4.2c.773 0 1.271.484 1.272 1.265 0 .801-.487 1.276-1.271 1.277zM2.617 3.429v-.495c0-.433.184-.639.59-.665h.81c.697 0 1.113.413 1.113 1.104 0 .527-.285 1.142-1.086 1.142H2.616V3.429zm3.61 1.877l-.287-.16.25-.212c.291-.248.779-.806.779-1.77C6.968 1.689 5.815.737 4.03.737H1.76a.99.99 0 0 0-.959.974v8.372H4.07c1.984 0 3.265-1.072 3.265-2.731 0-.894-.414-1.658-1.11-2.046z"/>
        <path fill="#499FDD" d="M73.127 3.208c-.808 0-1.59.375-2.091 1.005l-.141.177-.11-.198c-.362-.653-.982-.984-1.846-.984-.905 0-1.512.5-1.794.799l-.185.198-.07-.26c-.104-.376-.44-.583-.95-.583h-.82l-.007 6.752h1.86v-2.98c0-.262.032-.52.098-.79.178-.72.666-1.495 1.486-1.418.506.049.753.436.753 1.185v4.003h1.873v-2.98c0-.327.03-.571.104-.816.151-.688.66-1.393 1.452-1.393.573 0 .784.322.784 1.186v3.016c0 .682.307.987.994.987h.875l.002-4.31c0-1.722-.764-2.596-2.268-2.596M56.204 7.77c-.005.006-.805.843-1.86.843-.959 0-1.929-.584-1.929-1.889 0-1.126.752-1.913 1.828-1.913.35 0 .748.124.81.333l.009.036c.143.473.577.499.663.499h1.018v-.883c0-1.166-1.494-1.588-2.5-1.588-2.15 0-3.71 1.485-3.71 3.53s1.543 3.529 3.671 3.529c1.846 0 2.85-1.204 2.86-1.217l.054-.065-.807-1.328-.107.113"/>
    </g>
</svg>
