<svg xmlns="http://www.w3.org/2000/svg" width="71" height="16" fill="none" viewBox="0 0 71 16">
  <path fill="#202843" d="M14.5493 10.4821c1.3302-3.89732-.7509-8.13505-4.64822-9.46525C6.00376-.313293 1.76603 1.76781.435827 5.66513-.894322 9.56245 1.18679 13.8001 5.08411 15.1303c3.89732 1.3302 8.13509-.7509 9.46519-4.6482Z"/>
  <path fill="#FFC94C" d="M1.17901 12.0409c1.16033-.5537 5.10989-2.49227 5.88817-2.94838.63942-.3727 1.59143-.92196 1.59143-.92196l.4038.82303.61663 4.05581.47086-.2718.3134-5.6651c.9515-.59497 1.79-1.17383 2.6676-1.77964.3217-.22204.6485-.44765.9881-.67905-.1075-.20787-.2245-.4104-.3507-.60692-.3702.17841-.7289.34866-1.082.51616-.9636.45715-1.8841.89383-2.87493 1.42037L4.7486 3.42224l-.47088.27184L7.48188 6.256l.51.75988.00081.00133s-.95163.54985-1.5941.91728c-.78421.44602-4.43855 2.89761-5.497803 3.62531.08683.1639.179673.3243.278223.4811Z"/>
  <path fill="#202843" fill-rule="evenodd" d="M66.9431 6.41407V5.5955h1.4427v7.4567h-1.4842v-.8468c-.5292.6166-1.2738 1.0242-2.3505 1.0242-2.1195 0-3.4819-1.6895-3.4819-3.90132 0-2.19634 1.3624-3.90125 3.4819-3.90125.9422 0 1.8156.35541 2.392.98704Zm-.0994 1.46342c-.4392-.65019-1.1821-1.05035-2.0558-1.05035-1.3122 0-2.2162 1.11113-2.2162 2.50114 0 1.39002.8708 2.53442 2.2162 2.53442.899 0 1.6263-.5123 2.0558-1.1762V7.87749Z" clip-rule="evenodd"/>
  <path fill="#202843" d="M58.0818 3.67593c0-.573.4695-1.03631 1.0486-1.03631.5608 0 1.0363.47548 1.0363 1.03631 0 .57917-.4633 1.04857-1.0363 1.04857-.5791 0-1.0486-.4694-1.0486-1.04857ZM58.353 5.59552h1.5424v7.45678H58.353V5.59552Z"/>
  <path fill="#202843" fill-rule="evenodd" d="M55.3386 2.83069h1.5091V13.0522h-1.4843v-.8469c-.5294.6167-1.2741 1.0243-2.3508 1.0243-2.1195 0-3.482-1.6895-3.482-3.90131 0-2.19634 1.3625-3.90125 3.482-3.90125.9067 0 1.7498.32914 2.326.91691V2.83069Zm-.0333 5.04681c-.4393-.65019-1.1821-1.05034-2.0559-1.05034-1.3122 0-2.2162 1.11112-2.2162 2.50113 0 1.39001.8708 2.53441 2.2162 2.53441.8989 0 1.6263-.5122 2.0559-1.1762v-2.809ZM45.1857 13.2419c.6734-.0016 1.2847-.1276 1.8336-.3781.5525-.252 1.0372-.6155 1.4541-1.0905l-.9212-.9814-.002.0022c-.3059.325-.6501.574-1.0334.7753-.3798.1898-.8129.2853-1.3004.2853-1.1515 0-2.1537-.8676-2.2986-2.00974h5.7985c.0012-.01662.0024-.03324.0035-.04987.0134-.17796.0201-.35548.0201-.53478 0-2.12963-1.5277-3.85806-3.642-3.85806-2.1297 0-3.7346 1.68212-3.7346 3.91981 0 2.28234 1.6027 3.91754 3.8224 3.91984Zm-2.2311-4.67103h4.2091c-.1486-1.03713-1.0016-1.81066-2.0977-1.81066-.5489 0-1.0508.23778-1.4302.59155-.3642.33953-.6125.78318-.6812 1.21911ZM34.8176 12.3048v3.5132h-1.5091V5.59647h1.4843v.84685c.5294-.61664 1.2741-1.02422 2.3508-1.02422 2.1196 0 3.482 1.68954 3.482 3.90125 0 2.19645-1.3624 3.90135-3.482 3.90135-.9068 0-1.7498-.3292-2.326-.9169Zm.0333-1.5337c.4392.6503 1.1821 1.0504 2.0559 1.0504 1.3122 0 2.2162-1.1111 2.2162-2.50115 0-1.39002-.8708-2.53432-2.2162-2.53432-.8989 0-1.6263.51223-2.0559 1.17621v2.80886Z" clip-rule="evenodd"/>
  <path fill="#202843" d="m27.9572 9.21871-2.6301-3.62273h1.8618l1.7544 2.47116 1.7544-2.47116h1.8369L29.893 9.23451l2.764 3.81789h-1.8639l-1.8696-2.639-1.8696 2.639h-1.8721l2.7754-3.83369ZM20.3583 8.67798h3.8734V7.21486h-3.8734V4.55668h4.2087V3.09357h-5.8941v9.95873h5.9246v-1.463h-4.2392V8.67798ZM70.0341 12.5151c0-.2984-.2382-.5402-.5277-.5402-.2916 0-.5298.2418-.5298.5402 0 .297.2382.5387.5298.5387.2895 0 .5277-.2417.5277-.5387Zm-.1173 0c0 .2343-.1825.4283-.4104.4283-.23 0-.4118-.194-.4118-.4283 0-.2358.1818-.4298.4118-.4298.2279 0 .4104.194.4104.4298Zm-.2078-.1c0-.1059-.0808-.1686-.1922-.1686h-.187v.5373h.1136v-.194h.043l.1225.194h.1343l-.1418-.2135c.0661-.0283.1076-.085.1076-.1552Zm-.1165.003c0 .0448-.0356.0701-.0801.0701h-.069v-.1387h.069c.0445 0 .0801.0239.0801.0686Z"/>
</svg>