<svg fill="none" xmlns="http://www.w3.org/2000/svg" viewBox="0 0 142 32" width="120" height="32">
  <g clip-path="url(#a)">
    <path fill-rule="evenodd" clip-rule="evenodd" d="m88.8 25.96-2.27 3.66 3.28 2.05 2.35-3.78a10.74 10.74 0 0 1-3.35-1.93ZM95.75 27.5a9.75 9.75 0 1 0 0-19.5 9.75 9.75 0 0 0 0 19.5Zm0-4a5.75 5.75 0 1 0 0-11.5 5.75 5.75 0 0 0 0 11.5Z" fill="#3C69F5"/>
    <path d="M4.67 27.04V16.5h10.6v-4.09H4.68V5.08H16.5V.92H.25v26.12h4.42ZM22.75 27.04V9.1h-4.24v17.94h4.24ZM17.85 2.8a2.76 2.76 0 0 0 2.76 2.76c1.55 0 2.8-1.21 2.8-2.76a2.8 2.8 0 0 0-2.8-2.8 2.8 2.8 0 0 0-2.76 2.8ZM28.86 16.69c0-2.36 1.3-4.24 3.72-4.24 2.7 0 3.69 1.77 3.69 3.98v10.6h4.27V15.7c0-3.94-2.1-7.1-6.48-7.1-2 0-4.13.84-5.3 2.9V9.1h-4.17v17.95h4.27V16.69ZM46.11 18.01c0-3.42 2.07-5.6 4.87-5.6 2.8 0 4.71 2.14 4.71 5.57 0 3.42-1.95 5.74-4.75 5.74-2.91 0-4.83-2.28-4.83-5.7ZM59.81.37h-4.16V11.2c-.55-1.14-2.13-2.58-5.26-2.58-5.05 0-8.55 4.23-8.55 9.4 0 5.4 3.46 9.46 8.62 9.46 2.54 0 4.42-1.25 5.27-2.76 0 .73.1 1.91.18 2.32H60c-.04-.3-.18-1.66-.18-3.28V.36Z" fill="#170033"/>
    <path d="M84.62 27.04V.92h-4.45v10.8H67.9V.92h-4.42v26.12h4.42V15.88h12.27v11.16h4.45ZM113.24 3.6h-3.87v2.7c0 1.58-.84 2.8-2.76 2.8h-.92v3.8h3.32v9.02c0 3.35 2.06 5.34 5.37 5.34 1.55 0 2.36-.3 2.62-.4v-3.54a9.1 9.1 0 0 1-1.47.14c-1.59 0-2.29-.66-2.29-2.24v-8.33h3.72V9.1h-3.72V3.62ZM122.31 16.1a4.3 4.3 0 0 1 4.39-3.98c2.95 0 4.35 1.88 4.42 3.98h-8.8Zm9.29 4.68c-.6 1.76-1.92 3.13-4.5 3.13a4.8 4.8 0 0 1-4.9-4.68h13.12c.03-.07.1-.66.1-1.36 0-5.68-3.23-9.32-8.76-9.32-4.53 0-8.73 3.75-8.73 9.43 0 6.08 4.31 9.61 9.17 9.61 4.31 0 7.15-2.54 8.1-5.67l-3.6-1.14ZM141.94 27.04V.37h-4.27v26.67h4.27Z" fill="#3C69F5"/>
  </g>
  <defs>
    <clipPath id="a">
      <path fill="#fff" d="M0 0h142v32H0z"/>
    </clipPath>
  </defs>
</svg>