<svg xmlns="http://www.w3.org/2000/svg" width="76" height="15" viewBox="0 0 76 15">
    <path fill="#EE2841" fill-rule="nonzero" d="M38.48 10.622c-.12.226-.597.591-.953.766-.236.114-.471.164-.807.164-.893 0-1.352-.517-1.352-1.413V6.606h-.534a.484.484 0 0 1-.472-.48c0-.252.224-.466.472-.466h.534V4.562c0-.303.235-.542.533-.542.286 0 .522.24.522.542V5.66h.744a.473.473 0 0 1 0 .946h-.744V9.9c0 .403.186.706.546.706.412 0 .769-.417 1.047-.719a3.38 3.38 0 0 1-.265-1.35c0-1.678 1.191-3.016 2.842-3.016 1.7 0 2.755 1.35 2.755 2.864 0 .328-.223.518-.62.518h-3.86c.086.971.781 1.791 1.923 1.791.484 0 .98-.151 1.403-.466.062-.05.136-.063.236-.063.235 0 .422.189.422.429a.421.421 0 0 1-.187.353c-.558.416-1.228.618-1.985.618-.901 0-1.675-.345-2.2-.943zm19.716-.668c-.24.367-.459.597-.7.841-.458.455-1.128.757-1.948.757-1.712 0-2.88-1.3-2.88-3.028.026-1.716 1.205-3.003 2.918-3.003.806 0 1.365.265 1.8.669a.548.548 0 0 1 .16.353.478.478 0 0 1-.471.492.556.556 0 0 1-.323-.113c-.322-.316-.695-.442-1.142-.442-1.117 0-1.824.87-1.824 2.057 0 1.186.72 2.031 1.824 2.07.758.024 1.502-.53 2.11-1.502.05-.086.118-.211.183-.322a3.75 3.75 0 0 1-.009-.259c0-1.653 1.105-3.016 2.855-3.016 1.775 0 2.854 1.363 2.854 3.016 0 1.666-1.092 3.028-2.854 3.028-1.21 0-2.112-.645-2.553-1.598zm17.062-5.38c-.063 0-.125-.062-.125-.125v-.745l-.31.82c-.012.026-.037.05-.062.05s-.05-.024-.062-.05l-.31-.82v.745c0 .063-.05.126-.124.126a.125.125 0 0 1-.124-.126v-.884c0-.113.086-.202.198-.202.087 0 .161.05.186.14l.236.618.236-.619a.202.202 0 0 1 .186-.139c.112 0 .199.089.199.202v.884c0 .063-.062.126-.124.126zm-1.8 0a.125.125 0 0 1-.124-.125V3.59h-.236a.112.112 0 0 1-.112-.114c0-.063.05-.114.112-.114h.72c.062 0 .112.05.112.114 0 .063-.05.114-.112.114h-.236v.858c0 .063-.05.126-.124.126zM9.713 2.999h-.012v1.74l-.794-.037V3.4c0-.732.496-1.35 1.154-1.552-.223.328-.348.72-.348 1.149zm-.794 8.958h.012V9.912h.795v2.448c0 .429.124.82.347 1.148a1.597 1.597 0 0 1-1.154-1.552zm1.998-2.031h.013v2.851c0 .43.124.82.347 1.149a1.597 1.597 0 0 1-1.154-1.552V9.925h.794zm0-7.331h-.012v2.208l-.794-.038V2.998c0-.732.496-1.35 1.154-1.552-.211.328-.348.719-.348 1.148zm-9.023-.518a2.26 2.26 0 0 0-.186.922v9.362c0 .34.075.644.186.934a2.032 2.032 0 0 1-.98-1.742V3.818c0-.745.397-1.388.98-1.742zm1.018.114v10.586c0 .556.186 1.073.509 1.49a2.043 2.043 0 0 1-1.303-1.906V2.998c0-.745.397-1.388.98-1.742-.124.29-.186.606-.186.934zM12.916.966c.88 0 1.6.732 1.613 1.628v10.17c0 .896-.72 1.628-1.601 1.628s-1.601-.732-1.601-1.628V9.508H7.318v3.256c0 1.123-.894 2.031-1.998 2.031-1.105 0-1.998-.908-1.998-2.031V2.177c0-1.123.893-2.031 1.998-2.031 1.104 0 1.998.908 1.998 2.031V5.03l3.996.215v-2.65c0-.896.72-1.628 1.602-1.628zm13.826 9.905V7.855h-4.32v3.016c0 .328-.26.593-.57.593a.607.607 0 0 1-.596-.593V3.994c0-.315.273-.593.583-.593.323 0 .584.278.584.593v2.802h4.319V3.994c0-.315.26-.593.583-.593.323 0 .583.278.583.593v6.877c0 .328-.26.593-.583.593-.323.013-.583-.265-.583-.593zm6.615-2.347c0-1.085-.62-2.057-1.762-2.057-1.13 0-1.763.972-1.763 2.057 0 1.098.633 2.07 1.763 2.07 1.141.012 1.762-.972 1.762-2.07zm-4.617 0c0-1.653 1.105-3.016 2.855-3.016 1.774 0 2.854 1.363 2.854 3.016 0 1.666-1.092 3.028-2.854 3.028-1.75 0-2.855-1.35-2.855-3.028zm10.115-.416h3.463c-.025-.757-.534-1.716-1.725-1.716-1.142.012-1.676.933-1.738 1.716zm5.163 2.826v-6.99c0-.29.236-.53.522-.53a.54.54 0 0 1 .533.53v6.99a.542.542 0 0 1-.533.543.532.532 0 0 1-.522-.543zm1.738-.404c0-.265.198-.466.46-.466.098 0 .185.037.26.088.434.328.993.542 1.588.542.795 0 1.217-.328 1.217-.82 0-.568-.646-.757-1.366-.933-.955-.228-2.085-.493-2.085-1.73 0-.92.77-1.703 2.16-1.703.782 0 1.402.24 1.886.594.1.088.187.201.187.353 0 .24-.199.441-.435.441a.388.388 0 0 1-.236-.088c-.36-.277-.856-.441-1.39-.441-.72 0-1.166.29-1.166.744 0 .505.608.669 1.315.833.98.227 2.16.504 2.16 1.817 0 .984-.795 1.766-2.284 1.766-.782 0-1.49-.202-2.06-.643-.137-.05-.211-.202-.211-.354zm5.92-.48c.397 0 .732.342.732.745a.748.748 0 0 1-.732.745.748.748 0 0 1-.732-.745c.012-.403.335-.744.732-.744zm10.835-1.526c0-1.085-.62-2.057-1.762-2.057-1.13 0-1.763.972-1.763 2.057 0 1.098.633 2.07 1.763 2.07 1.142.012 1.762-.972 1.762-2.07zm9.83-1.274v3.684a.54.54 0 0 1-.534.53.529.529 0 0 1-.521-.53V7.578c0-.669-.298-.984-.98-.984-.571 0-1.142.656-1.403 1.072v3.28c0 .291-.236.53-.534.53a.54.54 0 0 1-.533-.53V7.59c0-.668-.286-.984-.993-.984-.546 0-1.105.694-1.39 1.11v3.23c0 .291-.249.53-.522.53a.531.531 0 0 1-.533-.53V6.14c0-.302.235-.542.509-.542.297 0 .533.24.533.542v.328c.236-.353.98-.959 1.825-.959.856 0 1.365.455 1.539 1.073.322-.543 1.092-1.073 1.923-1.073 1.068.013 1.614.594 1.614 1.742z"/>
</svg>
